<?xml version="1.0" encoding="UTF-8" standalone="no"?>
<!-- Created with Inkscape (http://www.inkscape.org/) -->

<svg
   xmlns:dc="http://purl.org/dc/elements/1.1/"
   xmlns:cc="http://creativecommons.org/ns#"
   xmlns:rdf="http://www.w3.org/1999/02/22-rdf-syntax-ns#"
   xmlns:svg="http://www.w3.org/2000/svg"
   xmlns="http://www.w3.org/2000/svg"
   xmlns:sodipodi="http://sodipodi.sourceforge.net/DTD/sodipodi-0.dtd"
   xmlns:inkscape="http://www.inkscape.org/namespaces/inkscape"
   width="120"
   height="64"
   viewBox="0 0 31.75 16.933333"
   version="1.1"
   id="svg8"
   inkscape:version="0.92.2 (5c3e80d, 2017-08-06)"
   sodipodi:docname="ipyelk.svg">
  <defs
     id="defs2" />
  <sodipodi:namedview
     id="base"
     pagecolor="#ffffff"
     bordercolor="#666666"
     borderopacity="1.0"
     inkscape:pageopacity="0.0"
     inkscape:pageshadow="2"
     inkscape:zoom="3.959798"
     inkscape:cx="46.841619"
     inkscape:cy="26.364179"
     inkscape:document-units="px"
     inkscape:current-layer="layer1"
     showgrid="false"
     units="px"
     inkscape:window-width="1920"
     inkscape:window-height="1016"
     inkscape:window-x="0"
     inkscape:window-y="27"
     inkscape:window-maximized="1" />
  <metadata
     id="metadata5">
    <rdf:RDF>
      <cc:Work
         rdf:about="">
        <dc:format>image/svg+xml</dc:format>
        <dc:type
           rdf:resource="http://purl.org/dc/dcmitype/StillImage" />
        <dc:title></dc:title>
      </cc:Work>
    </rdf:RDF>
  </metadata>
  <g
     inkscape:label="Layer 1"
     inkscape:groupmode="layer"
     id="layer1"
     transform="translate(0,-280.06667)">
    <g
       aria-label="ipyelk"
       style="font-style:normal;font-variant:normal;font-weight:900;font-stretch:normal;font-size:8.75066662px;line-height:1.25;font-family:'Fira Sans';-inkscape-font-specification:'Fira Sans, Heavy';font-variant-ligatures:normal;font-variant-caps:normal;font-variant-numeric:normal;font-feature-settings:normal;text-align:start;letter-spacing:0px;word-spacing:0px;writing-mode:lr-tb;text-anchor:start;fill:#2c2254;fill-opacity:1;stroke:#fdfdfd;stroke-width:0.26458332;stroke-miterlimit:4;stroke-dasharray:none;stroke-opacity:1"
       id="text817"
       transform="translate(-4.5006031)">
      <path
         d="m 12.297381,287.3996 c -0.568794,0 -0.971324,0.40253 -0.971324,0.92757 0,0.52504 0.40253,0.92757 0.971324,0.92757 0.568793,0 0.971324,-0.40253 0.971324,-0.92757 0,-0.52504 -0.402531,-0.92757 -0.971324,-0.92757 z m 0.866316,2.58144 h -1.732632 v 4.67286 h 1.732632 z"
         style="font-style:normal;font-variant:normal;font-weight:900;font-stretch:normal;font-size:8.75066662px;font-family:'Fira Sans';-inkscape-font-specification:'Fira Sans, Heavy';font-variant-ligatures:normal;font-variant-caps:normal;font-variant-numeric:normal;font-feature-settings:normal;text-align:start;writing-mode:lr-tb;text-anchor:start;fill:#2c2254;fill-opacity:1;stroke:#fdfdfd;stroke-width:0.26458332;stroke-miterlimit:4;stroke-dasharray:none;stroke-opacity:1"
         id="path860"
         inkscape:connector-curvature="0" />
      <path
         d="m 16.78866,289.80603 c -0.376278,0 -0.883817,0.14876 -1.286348,0.63005 l -0.07001,-0.45504 H 13.89219 v 6.65926 l 1.732632,-0.17501 v -2.10016 c 0.280021,0.30627 0.647549,0.46378 1.085082,0.46378 1.120086,0 1.863892,-1.07633 1.863892,-2.52894 0,-1.54012 -0.560042,-2.49394 -1.785136,-2.49394 z m -0.647549,3.78904 c -0.210016,0 -0.358777,-0.0875 -0.516289,-0.32378 v -1.78513 c 0.175013,-0.31503 0.385029,-0.43753 0.577544,-0.43753 0.350026,0 0.595045,0.14876 0.595045,1.27759 0,0.94507 -0.271271,1.26885 -0.6563,1.26885 z"
         style="font-style:normal;font-variant:normal;font-weight:900;font-stretch:normal;font-size:8.75066662px;font-family:'Fira Sans';-inkscape-font-specification:'Fira Sans, Heavy';font-variant-ligatures:normal;font-variant-caps:normal;font-variant-numeric:normal;font-feature-settings:normal;text-align:start;writing-mode:lr-tb;text-anchor:start;fill:#2c2254;fill-opacity:1;stroke:#fdfdfd;stroke-width:0.26458332;stroke-miterlimit:4;stroke-dasharray:none;stroke-opacity:1"
         id="path862"
         inkscape:connector-curvature="0" />
      <path
         d="m 23.490304,289.98104 h -1.785136 l -0.726306,3.61403 -0.586294,-3.61403 h -1.83764 l 1.330101,4.67286 h 0.595045 c -0.245018,0.52504 -0.621297,0.72631 -1.513865,0.81381 l 0.183764,1.18134 c 1.566369,-0.0437 2.511441,-0.7088 2.905221,-2.0039 z"
         style="font-style:normal;font-variant:normal;font-weight:900;font-stretch:normal;font-size:8.75066662px;font-family:'Fira Sans';-inkscape-font-specification:'Fira Sans, Heavy';font-variant-ligatures:normal;font-variant-caps:normal;font-variant-numeric:normal;font-feature-settings:normal;text-align:start;writing-mode:lr-tb;text-anchor:start;fill:#2c2254;fill-opacity:1;stroke:#fdfdfd;stroke-width:0.26458332;stroke-miterlimit:4;stroke-dasharray:none;stroke-opacity:1"
         id="path864"
         inkscape:connector-curvature="0" />
      <path
         d="m 27.984455,292.25622 c 0,-1.56637 -0.910069,-2.45019 -2.292675,-2.45019 -1.548868,0 -2.327677,1.15509 -2.327677,2.52019 0,1.44386 0.805061,2.50269 2.520192,2.50269 0.813812,0 1.461361,-0.31502 1.925147,-0.6913 l -0.700054,-0.94507 c -0.40253,0.28002 -0.726305,0.41128 -1.05883,0.41128 -0.507539,0 -0.840064,-0.12251 -0.936322,-0.79631 h 2.835216 c 0.0175,-0.16626 0.035,-0.40253 0.035,-0.55129 z m -1.70638,-0.42879 h -1.172589 c 0.06125,-0.71755 0.253769,-0.92757 0.621297,-0.92757 0.446284,0 0.542541,0.39378 0.551292,0.86632 z"
         style="font-style:normal;font-variant:normal;font-weight:900;font-stretch:normal;font-size:8.75066662px;font-family:'Fira Sans';-inkscape-font-specification:'Fira Sans, Heavy';font-variant-ligatures:normal;font-variant-caps:normal;font-variant-numeric:normal;font-feature-settings:normal;text-align:start;writing-mode:lr-tb;text-anchor:start;fill:#2c2254;fill-opacity:1;stroke:#fdfdfd;stroke-width:0.26458332;stroke-miterlimit:4;stroke-dasharray:none;stroke-opacity:1"
         id="path866"
         inkscape:connector-curvature="0" />
      <path
         d="m 29.880205,294.82891 c 0.39378,0 0.735056,-0.07 0.962573,-0.15751 l -0.306273,-1.23384 c -0.04375,0.0175 -0.105008,0.035 -0.183764,0.035 -0.140011,0 -0.210016,-0.0788 -0.210016,-0.23627 v -5.2679 l -1.732632,0.17501 v 5.1629 c 0,0.97132 0.52504,1.52261 1.470112,1.52261 z"
         style="font-style:normal;font-variant:normal;font-weight:900;font-stretch:normal;font-size:8.75066662px;font-family:'Fira Sans';-inkscape-font-specification:'Fira Sans, Heavy';font-variant-ligatures:normal;font-variant-caps:normal;font-variant-numeric:normal;font-feature-settings:normal;text-align:start;writing-mode:lr-tb;text-anchor:start;fill:#2c2254;fill-opacity:1;stroke:#fdfdfd;stroke-width:0.26458332;stroke-miterlimit:4;stroke-dasharray:none;stroke-opacity:1"
         id="path868"
         inkscape:connector-curvature="0" />
      <path
         d="m 32.818514,287.96839 -1.732632,0.17501 v 6.5105 h 1.732632 z m 3.001479,2.01265 h -1.715131 l -1.251345,2.11767 1.120085,2.55519 h 1.916396 l -1.303849,-2.6252 z"
         style="font-style:normal;font-variant:normal;font-weight:900;font-stretch:normal;font-size:8.75066662px;font-family:'Fira Sans';-inkscape-font-specification:'Fira Sans, Heavy';font-variant-ligatures:normal;font-variant-caps:normal;font-variant-numeric:normal;font-feature-settings:normal;text-align:start;writing-mode:lr-tb;text-anchor:start;fill:#2c2254;fill-opacity:1;stroke:#fdfdfd;stroke-width:0.26458332;stroke-miterlimit:4;stroke-dasharray:none;stroke-opacity:1"
         id="path870"
         inkscape:connector-curvature="0" />
    </g>
    <path
       d="m 8.729174,286.57066 1.0178904,1.413 5.6382506,-3.25525 -0.866319,-1.50051 z m 0.242279,-3.60568 0.8575648,1.48535 2.4596192,0.0249 1.652819,-2.24761 -0.9582,-1.65966 -1.621565,2.44177 z"
       style="font-style:normal;font-variant:normal;font-weight:900;font-stretch:normal;font-size:8.75066662px;line-height:1.25;font-family:'Fira Sans';-inkscape-font-specification:'Fira Sans, Heavy';font-variant-ligatures:normal;font-variant-caps:normal;font-variant-numeric:normal;font-feature-settings:normal;text-align:start;letter-spacing:0px;word-spacing:0px;writing-mode:lr-tb;text-anchor:start;fill:#2c2254;fill-opacity:1;stroke:#fdfdfd;stroke-width:0.26458332;stroke-miterlimit:4;stroke-dasharray:none;stroke-opacity:1"
       id="path854"
       inkscape:connector-curvature="0" />
    <path
       inkscape:connector-curvature="0"
       id="path856"
       style="font-style:normal;font-variant:normal;font-weight:900;font-stretch:normal;font-size:8.75066662px;line-height:1.25;font-family:'Fira Sans';-inkscape-font-specification:'Fira Sans, Heavy';font-variant-ligatures:normal;font-variant-caps:normal;font-variant-numeric:normal;font-feature-settings:normal;text-align:start;letter-spacing:0px;word-spacing:0px;writing-mode:lr-tb;text-anchor:start;fill:#2c2254;fill-opacity:1;stroke:#fdfdfd;stroke-width:0.26458332;stroke-miterlimit:4;stroke-dasharray:none;stroke-opacity:1"
       d="m 6.8686952,286.57066 -1.0178904,1.413 -5.63824908,-3.25525 0.86631888,-1.50051 z m -0.242279,-3.60568 -0.8575644,1.48535 -2.4596182,0.0249 -1.652819,-2.24761 0.9582,-1.65966 1.621565,2.44177 z" />
  </g>
</svg>
